<?xml version="1.0" encoding="UTF-8" ?>
<svg version="1.1" width="96" height="96" xmlns="http://www.w3.org/2000/svg" shape-rendering="crispEdges">
<rect x="33" y="36" width="1" height="1" fill="#33323D" />
<rect x="34" y="36" width="1" height="1" fill="#33323D" />
<rect x="35" y="36" width="1" height="1" fill="#33323D" />
<rect x="36" y="36" width="1" height="1" fill="#33323D" />
<rect x="37" y="36" width="1" height="1" fill="#33323D" />
<rect x="38" y="36" width="1" height="1" fill="#33323D" />
<rect x="39" y="36" width="1" height="1" fill="#33323D" />
<rect x="40" y="36" width="1" height="1" fill="#33323D" />
<rect x="41" y="36" width="1" height="1" fill="#33323D" />
<rect x="42" y="36" width="1" height="1" fill="#33323D" />
<rect x="32" y="37" width="1" height="1" fill="#33323D" />
<rect x="33" y="37" width="1" height="1" fill="#68538A" />
<rect x="34" y="37" width="1" height="1" fill="#68538A" />
<rect x="35" y="37" width="1" height="1" fill="#7B7BAB" />
<rect x="36" y="37" width="1" height="1" fill="#7B7BAB" />
<rect x="37" y="37" width="1" height="1" fill="#7B7BAB" />
<rect x="38" y="37" width="1" height="1" fill="#7B7BAB" />
<rect x="39" y="37" width="1" height="1" fill="#7B7BAB" />
<rect x="40" y="37" width="1" height="1" fill="#7B7BAB" />
<rect x="41" y="37" width="1" height="1" fill="#7B7BAB" />
<rect x="42" y="37" width="1" height="1" fill="#7B7BAB" />
<rect x="43" y="37" width="1" height="1" fill="#33323D" />
<rect x="31" y="38" width="1" height="1" fill="#33323D" />
<rect x="32" y="38" width="1" height="1" fill="#68538A" />
<rect x="33" y="38" width="1" height="1" fill="#68538A" />
<rect x="34" y="38" width="1" height="1" fill="#7B7BAB" />
<rect x="35" y="38" width="1" height="1" fill="#33323D" />
<rect x="36" y="38" width="1" height="1" fill="#33323D" />
<rect x="37" y="38" width="1" height="1" fill="#33323D" />
<rect x="38" y="38" width="1" height="1" fill="#33323D" />
<rect x="39" y="38" width="1" height="1" fill="#33323D" />
<rect x="40" y="38" width="1" height="1" fill="#33323D" />
<rect x="41" y="38" width="1" height="1" fill="#33323D" />
<rect x="42" y="38" width="1" height="1" fill="#7B7BAB" />
<rect x="43" y="38" width="1" height="1" fill="#7B7BAB" />
<rect x="44" y="38" width="1" height="1" fill="#33323D" />
<rect x="31" y="39" width="1" height="1" fill="#33323D" />
<rect x="32" y="39" width="1" height="1" fill="#68538A" />
<rect x="33" y="39" width="1" height="1" fill="#68538A" />
<rect x="34" y="39" width="1" height="1" fill="#33323D" />
<rect x="35" y="39" width="1" height="1" fill="#FFFFFF" />
<rect x="36" y="39" width="1" height="1" fill="#FFFFFF" />
<rect x="37" y="39" width="1" height="1" fill="#FFFFFF" />
<rect x="38" y="39" width="1" height="1" fill="#FFFFFF" />
<rect x="39" y="39" width="1" height="1" fill="#FFFFFF" />
<rect x="40" y="39" width="1" height="1" fill="#FFFFFF" />
<rect x="41" y="39" width="1" height="1" fill="#FFFFFF" />
<rect x="42" y="39" width="1" height="1" fill="#33323D" />
<rect x="43" y="39" width="1" height="1" fill="#7B7BAB" />
<rect x="44" y="39" width="1" height="1" fill="#33323D" />
<rect x="31" y="40" width="1" height="1" fill="#33323D" />
<rect x="32" y="40" width="1" height="1" fill="#68538A" />
<rect x="33" y="40" width="1" height="1" fill="#68538A" />
<rect x="34" y="40" width="1" height="1" fill="#33323D" />
<rect x="35" y="40" width="1" height="1" fill="#FFFFFF" />
<rect x="36" y="40" width="1" height="1" fill="#33323D" />
<rect x="37" y="40" width="1" height="1" fill="#33323D" />
<rect x="38" y="40" width="1" height="1" fill="#FFFFFF" />
<rect x="39" y="40" width="1" height="1" fill="#33323D" />
<rect x="40" y="40" width="1" height="1" fill="#33323D" />
<rect x="41" y="40" width="1" height="1" fill="#FFFFFF" />
<rect x="42" y="40" width="1" height="1" fill="#33323D" />
<rect x="43" y="40" width="1" height="1" fill="#7B7BAB" />
<rect x="44" y="40" width="1" height="1" fill="#33323D" />
<rect x="31" y="41" width="1" height="1" fill="#33323D" />
<rect x="32" y="41" width="1" height="1" fill="#68538A" />
<rect x="33" y="41" width="1" height="1" fill="#68538A" />
<rect x="34" y="41" width="1" height="1" fill="#33323D" />
<rect x="35" y="41" width="1" height="1" fill="#FFFFFF" />
<rect x="36" y="41" width="1" height="1" fill="#33323D" />
<rect x="37" y="41" width="1" height="1" fill="#33323D" />
<rect x="38" y="41" width="1" height="1" fill="#FFFFFF" />
<rect x="39" y="41" width="1" height="1" fill="#33323D" />
<rect x="40" y="41" width="1" height="1" fill="#33323D" />
<rect x="41" y="41" width="1" height="1" fill="#FFFFFF" />
<rect x="42" y="41" width="1" height="1" fill="#33323D" />
<rect x="43" y="41" width="1" height="1" fill="#7B7BAB" />
<rect x="44" y="41" width="1" height="1" fill="#33323D" />
<rect x="31" y="42" width="1" height="1" fill="#33323D" />
<rect x="32" y="42" width="1" height="1" fill="#68538A" />
<rect x="33" y="42" width="1" height="1" fill="#68538A" />
<rect x="34" y="42" width="1" height="1" fill="#7B7BAB" />
<rect x="35" y="42" width="1" height="1" fill="#33323D" />
<rect x="36" y="42" width="1" height="1" fill="#FFFFFF" />
<rect x="37" y="42" width="1" height="1" fill="#FFFFFF" />
<rect x="38" y="42" width="1" height="1" fill="#FFFFFF" />
<rect x="39" y="42" width="1" height="1" fill="#FFFFFF" />
<rect x="40" y="42" width="1" height="1" fill="#FFFFFF" />
<rect x="41" y="42" width="1" height="1" fill="#33323D" />
<rect x="42" y="42" width="1" height="1" fill="#7B7BAB" />
<rect x="43" y="42" width="1" height="1" fill="#7B7BAB" />
<rect x="44" y="42" width="1" height="1" fill="#33323D" />
<rect x="31" y="43" width="1" height="1" fill="#33323D" />
<rect x="32" y="43" width="1" height="1" fill="#68538A" />
<rect x="33" y="43" width="1" height="1" fill="#68538A" />
<rect x="34" y="43" width="1" height="1" fill="#7B7BAB" />
<rect x="35" y="43" width="1" height="1" fill="#33323D" />
<rect x="36" y="43" width="1" height="1" fill="#FFFFFF" />
<rect x="37" y="43" width="1" height="1" fill="#68538A" />
<rect x="38" y="43" width="1" height="1" fill="#FFFFFF" />
<rect x="39" y="43" width="1" height="1" fill="#68538A" />
<rect x="40" y="43" width="1" height="1" fill="#FFFFFF" />
<rect x="41" y="43" width="1" height="1" fill="#33323D" />
<rect x="42" y="43" width="1" height="1" fill="#7B7BAB" />
<rect x="43" y="43" width="1" height="1" fill="#7B7BAB" />
<rect x="44" y="43" width="1" height="1" fill="#33323D" />
<rect x="27" y="44" width="1" height="1" fill="#33323D" />
<rect x="28" y="44" width="1" height="1" fill="#33323D" />
<rect x="29" y="44" width="1" height="1" fill="#33323D" />
<rect x="31" y="44" width="1" height="1" fill="#33323D" />
<rect x="32" y="44" width="1" height="1" fill="#68538A" />
<rect x="33" y="44" width="1" height="1" fill="#68538A" />
<rect x="34" y="44" width="1" height="1" fill="#7B7BAB" />
<rect x="35" y="44" width="1" height="1" fill="#7B7BAB" />
<rect x="36" y="44" width="1" height="1" fill="#7B7BAB" />
<rect x="37" y="44" width="1" height="1" fill="#7B7BAB" />
<rect x="38" y="44" width="1" height="1" fill="#7B7BAB" />
<rect x="39" y="44" width="1" height="1" fill="#7B7BAB" />
<rect x="40" y="44" width="1" height="1" fill="#7B7BAB" />
<rect x="41" y="44" width="1" height="1" fill="#7B7BAB" />
<rect x="42" y="44" width="1" height="1" fill="#7B7BAB" />
<rect x="43" y="44" width="1" height="1" fill="#7B7BAB" />
<rect x="44" y="44" width="1" height="1" fill="#33323D" />
<rect x="46" y="44" width="1" height="1" fill="#33323D" />
<rect x="47" y="44" width="1" height="1" fill="#33323D" />
<rect x="48" y="44" width="1" height="1" fill="#33323D" />
<rect x="26" y="45" width="1" height="1" fill="#33323D" />
<rect x="27" y="45" width="1" height="1" fill="#7B7BAB" />
<rect x="28" y="45" width="1" height="1" fill="#7B7BAB" />
<rect x="29" y="45" width="1" height="1" fill="#33323D" />
<rect x="31" y="45" width="1" height="1" fill="#33323D" />
<rect x="32" y="45" width="1" height="1" fill="#68538A" />
<rect x="33" y="45" width="1" height="1" fill="#68538A" />
<rect x="34" y="45" width="1" height="1" fill="#7B7BAB" />
<rect x="35" y="45" width="1" height="1" fill="#7B7BAB" />
<rect x="36" y="45" width="1" height="1" fill="#7B7BAB" />
<rect x="37" y="45" width="1" height="1" fill="#7B7BAB" />
<rect x="38" y="45" width="1" height="1" fill="#7B7BAB" />
<rect x="39" y="45" width="1" height="1" fill="#7B7BAB" />
<rect x="40" y="45" width="1" height="1" fill="#7B7BAB" />
<rect x="41" y="45" width="1" height="1" fill="#7B7BAB" />
<rect x="42" y="45" width="1" height="1" fill="#7B7BAB" />
<rect x="43" y="45" width="1" height="1" fill="#7B7BAB" />
<rect x="44" y="45" width="1" height="1" fill="#33323D" />
<rect x="46" y="45" width="1" height="1" fill="#33323D" />
<rect x="47" y="45" width="1" height="1" fill="#7B7BAB" />
<rect x="48" y="45" width="1" height="1" fill="#7B7BAB" />
<rect x="49" y="45" width="1" height="1" fill="#33323D" />
<rect x="26" y="46" width="1" height="1" fill="#33323D" />
<rect x="27" y="46" width="1" height="1" fill="#7B7BAB" />
<rect x="28" y="46" width="1" height="1" fill="#33323D" />
<rect x="29" y="46" width="1" height="1" fill="#33323D" />
<rect x="30" y="46" width="1" height="1" fill="#33323D" />
<rect x="31" y="46" width="1" height="1" fill="#33323D" />
<rect x="32" y="46" width="1" height="1" fill="#33323D" />
<rect x="33" y="46" width="1" height="1" fill="#68538A" />
<rect x="34" y="46" width="1" height="1" fill="#68538A" />
<rect x="35" y="46" width="1" height="1" fill="#68538A" />
<rect x="36" y="46" width="1" height="1" fill="#7B7BAB" />
<rect x="37" y="46" width="1" height="1" fill="#7B7BAB" />
<rect x="38" y="46" width="1" height="1" fill="#7B7BAB" />
<rect x="39" y="46" width="1" height="1" fill="#7B7BAB" />
<rect x="40" y="46" width="1" height="1" fill="#7B7BAB" />
<rect x="41" y="46" width="1" height="1" fill="#68538A" />
<rect x="42" y="46" width="1" height="1" fill="#7B7BAB" />
<rect x="43" y="46" width="1" height="1" fill="#68538A" />
<rect x="44" y="46" width="1" height="1" fill="#68538A" />
<rect x="45" y="46" width="1" height="1" fill="#33323D" />
<rect x="46" y="46" width="1" height="1" fill="#33323D" />
<rect x="47" y="46" width="1" height="1" fill="#33323D" />
<rect x="48" y="46" width="1" height="1" fill="#7B7BAB" />
<rect x="49" y="46" width="1" height="1" fill="#33323D" />
<rect x="26" y="47" width="1" height="1" fill="#33323D" />
<rect x="27" y="47" width="1" height="1" fill="#7B7BAB" />
<rect x="28" y="47" width="1" height="1" fill="#7B7BAB" />
<rect x="29" y="47" width="1" height="1" fill="#7B7BAB" />
<rect x="30" y="47" width="1" height="1" fill="#7B7BAB" />
<rect x="31" y="47" width="1" height="1" fill="#7B7BAB" />
<rect x="32" y="47" width="1" height="1" fill="#7B7BAB" />
<rect x="33" y="47" width="1" height="1" fill="#7B7BAB" />
<rect x="34" y="47" width="1" height="1" fill="#7B7BAB" />
<rect x="35" y="47" width="1" height="1" fill="#7B7BAB" />
<rect x="36" y="47" width="1" height="1" fill="#7B7BAB" />
<rect x="37" y="47" width="1" height="1" fill="#7B7BAB" />
<rect x="38" y="47" width="1" height="1" fill="#7B7BAB" />
<rect x="39" y="47" width="1" height="1" fill="#7B7BAB" />
<rect x="40" y="47" width="1" height="1" fill="#7B7BAB" />
<rect x="41" y="47" width="1" height="1" fill="#7B7BAB" />
<rect x="42" y="47" width="1" height="1" fill="#7B7BAB" />
<rect x="43" y="47" width="1" height="1" fill="#7B7BAB" />
<rect x="44" y="47" width="1" height="1" fill="#7B7BAB" />
<rect x="45" y="47" width="1" height="1" fill="#7B7BAB" />
<rect x="46" y="47" width="1" height="1" fill="#7B7BAB" />
<rect x="47" y="47" width="1" height="1" fill="#7B7BAB" />
<rect x="48" y="47" width="1" height="1" fill="#7B7BAB" />
<rect x="49" y="47" width="1" height="1" fill="#33323D" />
<rect x="27" y="48" width="1" height="1" fill="#33323D" />
<rect x="28" y="48" width="1" height="1" fill="#33323D" />
<rect x="29" y="48" width="1" height="1" fill="#33323D" />
<rect x="30" y="48" width="1" height="1" fill="#33323D" />
<rect x="31" y="48" width="1" height="1" fill="#33323D" />
<rect x="32" y="48" width="1" height="1" fill="#33323D" />
<rect x="33" y="48" width="1" height="1" fill="#33323D" />
<rect x="34" y="48" width="1" height="1" fill="#33323D" />
<rect x="35" y="48" width="1" height="1" fill="#33323D" />
<rect x="36" y="48" width="1" height="1" fill="#33323D" />
<rect x="37" y="48" width="1" height="1" fill="#33323D" />
<rect x="38" y="48" width="1" height="1" fill="#33323D" />
<rect x="39" y="48" width="1" height="1" fill="#33323D" />
<rect x="40" y="48" width="1" height="1" fill="#33323D" />
<rect x="41" y="48" width="1" height="1" fill="#33323D" />
<rect x="42" y="48" width="1" height="1" fill="#33323D" />
<rect x="43" y="48" width="1" height="1" fill="#33323D" />
<rect x="44" y="48" width="1" height="1" fill="#33323D" />
<rect x="45" y="48" width="1" height="1" fill="#33323D" />
<rect x="46" y="48" width="1" height="1" fill="#33323D" />
<rect x="47" y="48" width="1" height="1" fill="#33323D" />
<rect x="48" y="48" width="1" height="1" fill="#33323D" />
<rect x="30" y="49" width="1" height="1" fill="#33323D" />
<rect x="31" y="49" width="1" height="1" fill="#33323D" />
<rect x="32" y="49" width="1" height="1" fill="#33323D" />
<rect x="33" y="49" width="1" height="1" fill="#33323D" />
<rect x="34" y="49" width="1" height="1" fill="#33323D" />
<rect x="35" y="49" width="1" height="1" fill="#33323D" />
<rect x="36" y="49" width="1" height="1" fill="#33323D" />
<rect x="37" y="49" width="1" height="1" fill="#D06C63" />
<rect x="38" y="49" width="1" height="1" fill="#D06C63" />
<rect x="39" y="49" width="1" height="1" fill="#D06C63" />
<rect x="40" y="49" width="1" height="1" fill="#D06C63" />
<rect x="41" y="49" width="1" height="1" fill="#D06C63" />
<rect x="42" y="49" width="1" height="1" fill="#33323D" />
<rect x="43" y="49" width="1" height="1" fill="#33323D" />
<rect x="44" y="49" width="1" height="1" fill="#33323D" />
<rect x="45" y="49" width="1" height="1" fill="#33323D" />
<rect x="30" y="50" width="1" height="1" fill="#33323D" />
<rect x="31" y="50" width="1" height="1" fill="#CD897C" />
<rect x="32" y="50" width="1" height="1" fill="#33323D" />
<rect x="33" y="50" width="1" height="1" fill="#FFFFFF" />
<rect x="34" y="50" width="1" height="1" fill="#FFFFFF" />
<rect x="35" y="50" width="1" height="1" fill="#33323D" />
<rect x="36" y="50" width="1" height="1" fill="#D06C63" />
<rect x="37" y="50" width="1" height="1" fill="#DE9970" />
<rect x="38" y="50" width="1" height="1" fill="#DE9970" />
<rect x="39" y="50" width="1" height="1" fill="#DE9970" />
<rect x="40" y="50" width="1" height="1" fill="#DE9970" />
<rect x="41" y="50" width="1" height="1" fill="#DE9970" />
<rect x="42" y="50" width="1" height="1" fill="#DE9970" />
<rect x="43" y="50" width="1" height="1" fill="#33323D" />
<rect x="44" y="50" width="1" height="1" fill="#CD897C" />
<rect x="45" y="50" width="1" height="1" fill="#33323D" />
<rect x="30" y="51" width="1" height="1" fill="#33323D" />
<rect x="31" y="51" width="1" height="1" fill="#CD897C" />
<rect x="32" y="51" width="1" height="1" fill="#33323D" />
<rect x="33" y="51" width="1" height="1" fill="#33323D" />
<rect x="34" y="51" width="1" height="1" fill="#33323D" />
<rect x="35" y="51" width="1" height="1" fill="#33323D" />
<rect x="36" y="51" width="1" height="1" fill="#D06C63" />
<rect x="37" y="51" width="1" height="1" fill="#DE9970" />
<rect x="38" y="51" width="1" height="1" fill="#DE9970" />
<rect x="39" y="51" width="1" height="1" fill="#EAC088" />
<rect x="40" y="51" width="1" height="1" fill="#EAC088" />
<rect x="41" y="51" width="1" height="1" fill="#DE9970" />
<rect x="42" y="51" width="1" height="1" fill="#DE9970" />
<rect x="43" y="51" width="1" height="1" fill="#33323D" />
<rect x="44" y="51" width="1" height="1" fill="#EEBC9D" />
<rect x="45" y="51" width="1" height="1" fill="#33323D" />
<rect x="30" y="52" width="1" height="1" fill="#33323D" />
<rect x="31" y="52" width="1" height="1" fill="#CD897C" />
<rect x="32" y="52" width="1" height="1" fill="#33323D" />
<rect x="33" y="52" width="1" height="1" fill="#FFFFFF" />
<rect x="34" y="52" width="1" height="1" fill="#33323D" />
<rect x="35" y="52" width="1" height="1" fill="#FFFFFF" />
<rect x="36" y="52" width="1" height="1" fill="#33323D" />
<rect x="37" y="52" width="1" height="1" fill="#D06C63" />
<rect x="38" y="52" width="1" height="1" fill="#DE9970" />
<rect x="39" y="52" width="1" height="1" fill="#DE9970" />
<rect x="40" y="52" width="1" height="1" fill="#DE9970" />
<rect x="41" y="52" width="1" height="1" fill="#DE9970" />
<rect x="42" y="52" width="1" height="1" fill="#33323D" />
<rect x="43" y="52" width="1" height="1" fill="#EEBC9D" />
<rect x="44" y="52" width="1" height="1" fill="#EEBC9D" />
<rect x="45" y="52" width="1" height="1" fill="#33323D" />
<rect x="29" y="53" width="1" height="1" fill="#33323D" />
<rect x="30" y="53" width="1" height="1" fill="#33323D" />
<rect x="31" y="53" width="1" height="1" fill="#CD897C" />
<rect x="32" y="53" width="1" height="1" fill="#CD897C" />
<rect x="33" y="53" width="1" height="1" fill="#33323D" />
<rect x="34" y="53" width="1" height="1" fill="#33323D" />
<rect x="35" y="53" width="1" height="1" fill="#33323D" />
<rect x="36" y="53" width="1" height="1" fill="#CD897C" />
<rect x="37" y="53" width="1" height="1" fill="#33323D" />
<rect x="38" y="53" width="1" height="1" fill="#33323D" />
<rect x="39" y="53" width="1" height="1" fill="#33323D" />
<rect x="40" y="53" width="1" height="1" fill="#33323D" />
<rect x="41" y="53" width="1" height="1" fill="#33323D" />
<rect x="42" y="53" width="1" height="1" fill="#EEBC9D" />
<rect x="43" y="53" width="1" height="1" fill="#EEBC9D" />
<rect x="44" y="53" width="1" height="1" fill="#EEBC9D" />
<rect x="45" y="53" width="1" height="1" fill="#33323D" />
<rect x="28" y="54" width="1" height="1" fill="#33323D" />
<rect x="29" y="54" width="1" height="1" fill="#D06C63" />
<rect x="30" y="54" width="1" height="1" fill="#D06C63" />
<rect x="31" y="54" width="1" height="1" fill="#33323D" />
<rect x="32" y="54" width="1" height="1" fill="#CD897C" />
<rect x="33" y="54" width="1" height="1" fill="#CD897C" />
<rect x="34" y="54" width="1" height="1" fill="#CD897C" />
<rect x="35" y="54" width="1" height="1" fill="#CD897C" />
<rect x="36" y="54" width="1" height="1" fill="#EEBC9D" />
<rect x="37" y="54" width="1" height="1" fill="#EEBC9D" />
<rect x="38" y="54" width="1" height="1" fill="#EEBC9D" />
<rect x="39" y="54" width="1" height="1" fill="#EEBC9D" />
<rect x="40" y="54" width="1" height="1" fill="#EEBC9D" />
<rect x="41" y="54" width="1" height="1" fill="#EEBC9D" />
<rect x="42" y="54" width="1" height="1" fill="#EEBC9D" />
<rect x="43" y="54" width="1" height="1" fill="#EEBC9D" />
<rect x="44" y="54" width="1" height="1" fill="#33323D" />
<rect x="45" y="54" width="1" height="1" fill="#33323D" />
<rect x="46" y="54" width="1" height="1" fill="#33323D" />
<rect x="27" y="55" width="1" height="1" fill="#33323D" />
<rect x="28" y="55" width="1" height="1" fill="#DE9970" />
<rect x="29" y="55" width="1" height="1" fill="#DE9970" />
<rect x="30" y="55" width="1" height="1" fill="#DE9970" />
<rect x="31" y="55" width="1" height="1" fill="#D06C63" />
<rect x="32" y="55" width="1" height="1" fill="#33323D" />
<rect x="33" y="55" width="1" height="1" fill="#33323D" />
<rect x="34" y="55" width="1" height="1" fill="#33323D" />
<rect x="35" y="55" width="1" height="1" fill="#33323D" />
<rect x="36" y="55" width="1" height="1" fill="#33323D" />
<rect x="37" y="55" width="1" height="1" fill="#33323D" />
<rect x="38" y="55" width="1" height="1" fill="#33323D" />
<rect x="39" y="55" width="1" height="1" fill="#33323D" />
<rect x="40" y="55" width="1" height="1" fill="#33323D" />
<rect x="41" y="55" width="1" height="1" fill="#33323D" />
<rect x="42" y="55" width="1" height="1" fill="#33323D" />
<rect x="43" y="55" width="1" height="1" fill="#33323D" />
<rect x="44" y="55" width="1" height="1" fill="#D06C63" />
<rect x="45" y="55" width="1" height="1" fill="#33323D" />
<rect x="46" y="55" width="1" height="1" fill="#D06C63" />
<rect x="47" y="55" width="1" height="1" fill="#33323D" />
<rect x="27" y="56" width="1" height="1" fill="#33323D" />
<rect x="28" y="56" width="1" height="1" fill="#DE9970" />
<rect x="29" y="56" width="1" height="1" fill="#DE9970" />
<rect x="30" y="56" width="1" height="1" fill="#DE9970" />
<rect x="31" y="56" width="1" height="1" fill="#D06C63" />
<rect x="32" y="56" width="1" height="1" fill="#D06C63" />
<rect x="33" y="56" width="1" height="1" fill="#D06C63" />
<rect x="34" y="56" width="1" height="1" fill="#D06C63" />
<rect x="35" y="56" width="1" height="1" fill="#D06C63" />
<rect x="36" y="56" width="1" height="1" fill="#D06C63" />
<rect x="37" y="56" width="1" height="1" fill="#D06C63" />
<rect x="38" y="56" width="1" height="1" fill="#D06C63" />
<rect x="39" y="56" width="1" height="1" fill="#D06C63" />
<rect x="40" y="56" width="1" height="1" fill="#D06C63" />
<rect x="41" y="56" width="1" height="1" fill="#D06C63" />
<rect x="42" y="56" width="1" height="1" fill="#D06C63" />
<rect x="43" y="56" width="1" height="1" fill="#D06C63" />
<rect x="44" y="56" width="1" height="1" fill="#DE9970" />
<rect x="45" y="56" width="1" height="1" fill="#33323D" />
<rect x="46" y="56" width="1" height="1" fill="#D06C63" />
<rect x="47" y="56" width="1" height="1" fill="#33323D" />
<rect x="27" y="57" width="1" height="1" fill="#33323D" />
<rect x="28" y="57" width="1" height="1" fill="#33323D" />
<rect x="29" y="57" width="1" height="1" fill="#33323D" />
<rect x="30" y="57" width="1" height="1" fill="#33323D" />
<rect x="31" y="57" width="1" height="1" fill="#D06C63" />
<rect x="32" y="57" width="1" height="1" fill="#D06C63" />
<rect x="33" y="57" width="1" height="1" fill="#D06C63" />
<rect x="34" y="57" width="1" height="1" fill="#DE9970" />
<rect x="35" y="57" width="1" height="1" fill="#DE9970" />
<rect x="36" y="57" width="1" height="1" fill="#DE9970" />
<rect x="37" y="57" width="1" height="1" fill="#33323D" />
<rect x="38" y="57" width="1" height="1" fill="#33323D" />
<rect x="39" y="57" width="1" height="1" fill="#33323D" />
<rect x="40" y="57" width="1" height="1" fill="#33323D" />
<rect x="41" y="57" width="1" height="1" fill="#DE9970" />
<rect x="42" y="57" width="1" height="1" fill="#DE9970" />
<rect x="43" y="57" width="1" height="1" fill="#DE9970" />
<rect x="44" y="57" width="1" height="1" fill="#DE9970" />
<rect x="45" y="57" width="1" height="1" fill="#33323D" />
<rect x="46" y="57" width="1" height="1" fill="#33323D" />
<rect x="47" y="57" width="1" height="1" fill="#33323D" />
<rect x="27" y="58" width="1" height="1" fill="#33323D" />
<rect x="28" y="58" width="1" height="1" fill="#EEBC9D" />
<rect x="29" y="58" width="1" height="1" fill="#EEBC9D" />
<rect x="30" y="58" width="1" height="1" fill="#EEBC9D" />
<rect x="31" y="58" width="1" height="1" fill="#33323D" />
<rect x="32" y="58" width="1" height="1" fill="#33323D" />
<rect x="33" y="58" width="1" height="1" fill="#33323D" />
<rect x="34" y="58" width="1" height="1" fill="#33323D" />
<rect x="35" y="58" width="1" height="1" fill="#33323D" />
<rect x="36" y="58" width="1" height="1" fill="#33323D" />
<rect x="37" y="58" width="1" height="1" fill="#EED878" />
<rect x="38" y="58" width="1" height="1" fill="#EED878" />
<rect x="39" y="58" width="1" height="1" fill="#EED878" />
<rect x="40" y="58" width="1" height="1" fill="#FFFFFF" />
<rect x="41" y="58" width="1" height="1" fill="#33323D" />
<rect x="42" y="58" width="1" height="1" fill="#33323D" />
<rect x="43" y="58" width="1" height="1" fill="#33323D" />
<rect x="44" y="58" width="1" height="1" fill="#33323D" />
<rect x="45" y="58" width="1" height="1" fill="#33323D" />
<rect x="46" y="58" width="1" height="1" fill="#CD897C" />
<rect x="47" y="58" width="1" height="1" fill="#33323D" />
<rect x="28" y="59" width="1" height="1" fill="#33323D" />
<rect x="29" y="59" width="1" height="1" fill="#33323D" />
<rect x="30" y="59" width="1" height="1" fill="#33323D" />
<rect x="31" y="59" width="1" height="1" fill="#68538A" />
<rect x="32" y="59" width="1" height="1" fill="#68538A" />
<rect x="33" y="59" width="1" height="1" fill="#7B7BAB" />
<rect x="34" y="59" width="1" height="1" fill="#7B7BAB" />
<rect x="35" y="59" width="1" height="1" fill="#7B7BAB" />
<rect x="36" y="59" width="1" height="1" fill="#68538A" />
<rect x="37" y="59" width="1" height="1" fill="#68538A" />
<rect x="38" y="59" width="1" height="1" fill="#68538A" />
<rect x="39" y="59" width="1" height="1" fill="#68538A" />
<rect x="40" y="59" width="1" height="1" fill="#68538A" />
<rect x="41" y="59" width="1" height="1" fill="#7B7BAB" />
<rect x="42" y="59" width="1" height="1" fill="#7B7BAB" />
<rect x="43" y="59" width="1" height="1" fill="#7B7BAB" />
<rect x="44" y="59" width="1" height="1" fill="#7B7BAB" />
<rect x="45" y="59" width="1" height="1" fill="#33323D" />
<rect x="46" y="59" width="1" height="1" fill="#33323D" />
<rect x="30" y="60" width="1" height="1" fill="#33323D" />
<rect x="31" y="60" width="1" height="1" fill="#68538A" />
<rect x="32" y="60" width="1" height="1" fill="#68538A" />
<rect x="33" y="60" width="1" height="1" fill="#7B7BAB" />
<rect x="34" y="60" width="1" height="1" fill="#33323D" />
<rect x="35" y="60" width="1" height="1" fill="#33323D" />
<rect x="36" y="60" width="1" height="1" fill="#33323D" />
<rect x="37" y="60" width="1" height="1" fill="#33323D" />
<rect x="38" y="60" width="1" height="1" fill="#33323D" />
<rect x="39" y="60" width="1" height="1" fill="#33323D" />
<rect x="40" y="60" width="1" height="1" fill="#33323D" />
<rect x="41" y="60" width="1" height="1" fill="#33323D" />
<rect x="42" y="60" width="1" height="1" fill="#33323D" />
<rect x="43" y="60" width="1" height="1" fill="#7B7BAB" />
<rect x="44" y="60" width="1" height="1" fill="#7B7BAB" />
<rect x="45" y="60" width="1" height="1" fill="#33323D" />
<rect x="30" y="61" width="1" height="1" fill="#33323D" />
<rect x="31" y="61" width="1" height="1" fill="#33323D" />
<rect x="32" y="61" width="1" height="1" fill="#68538A" />
<rect x="33" y="61" width="1" height="1" fill="#68538A" />
<rect x="34" y="61" width="1" height="1" fill="#33323D" />
<rect x="41" y="61" width="1" height="1" fill="#33323D" />
<rect x="42" y="61" width="1" height="1" fill="#68538A" />
<rect x="43" y="61" width="1" height="1" fill="#68538A" />
<rect x="44" y="61" width="1" height="1" fill="#68538A" />
<rect x="45" y="61" width="1" height="1" fill="#33323D" />
<rect x="30" y="62" width="1" height="1" fill="#33323D" />
<rect x="31" y="62" width="1" height="1" fill="#CD897C" />
<rect x="32" y="62" width="1" height="1" fill="#CD897C" />
<rect x="33" y="62" width="1" height="1" fill="#33323D" />
<rect x="41" y="62" width="1" height="1" fill="#33323D" />
<rect x="42" y="62" width="1" height="1" fill="#CD897C" />
<rect x="43" y="62" width="1" height="1" fill="#CD897C" />
<rect x="44" y="62" width="1" height="1" fill="#33323D" />
<rect x="30" y="63" width="1" height="1" fill="#33323D" />
<rect x="31" y="63" width="1" height="1" fill="#33323D" />
<rect x="32" y="63" width="1" height="1" fill="#33323D" />
<rect x="41" y="63" width="1" height="1" fill="#33323D" />
<rect x="42" y="63" width="1" height="1" fill="#33323D" />
<rect x="43" y="63" width="1" height="1" fill="#33323D" />
</svg>